Coordinates
version=1
nRows=4
nColumns=114
inDegrees=yes

Units are S.I. units (second, meters, Newtons, ...)
If the header above contains a line with 'inDegrees', this indicates whether rotational values are in degrees (yes) or radians (no).

endheader 
time	pelvis_tilt	pelvis_list	pelvis_rotation	pelvis_tx	pelvis_ty	pelvis_tz	hip_flexion_l	hip_adduction_l	hip_rotation_l	hip_flexion_r	hip_adduction_r	hip_rotation_r	knee_angle_l	knee_angle_r	ankle_angle_l	ankle_angle_r	subtalar_angle_l	subtalar_angle_r	mtp_angle_l	mtp_angle_r	lumbar_extension	lumbar_bending	lumbar_rotation	arm_flex_l	arm_add_l	arm_rot_l	arm_flex_r	arm_add_r	arm_rot_r	elbow_flex_l	elbow_flex_r	pro_sup_l	pro_sup_r	addbrev_l/activation	addlong_l/activation	addmagDist_l/activation	addmagIsch_l/activation	addmagMid_l/activation	addmagProx_l/activation	bflh_l/activation	bfsh_l/activation	edl_l/activation	ehl_l/activation	fdl_l/activation	fhl_l/activation	gaslat_l/activation	gasmed_l/activation	glmax1_l/activation	glmax2_l/activation	glmax3_l/activation	glmed1_l/activation	glmed2_l/activation	glmed3_l/activation	glmin1_l/activation	glmin2_l/activation	glmin3_l/activation	grac_l/activation	iliacus_l/activation	perbrev_l/activation	perlong_l/activation	piri_l/activation	psoas_l/activation	recfem_l/activation	sart_l/activation	semimem_l/activation	semiten_l/activation	soleus_l/activation	tfl_l/activation	tibant_l/activation	tibpost_l/activation	vasint_l/activation	vaslat_l/activation	vasmed_l/activation	addbrev_r/activation	addlong_r/activation	addmagDist_r/activation	addmagIsch_r/activation	addmagMid_r/activation	addmagProx_r/activation	bflh_r/activation	bfsh_r/activation	edl_r/activation	ehl_r/activation	fdl_r/activation	fhl_r/activation	gaslat_r/activation	gasmed_r/activation	glmax1_r/activation	glmax2_r/activation	glmax3_r/activation	glmed1_r/activation	glmed2_r/activation	glmed3_r/activation	glmin1_r/activation	glmin2_r/activation	glmin3_r/activation	grac_r/activation	iliacus_r/activation	perbrev_r/activation	perlong_r/activation	piri_r/activation	psoas_r/activation	recfem_r/activation	sart_r/activation	semimem_r/activation	semiten_r/activation	soleus_r/activation	tfl_r/activation	tibant_r/activation	tibpost_r/activation	vasint_r/activation	vaslat_r/activation	vasmed_r/activation	
          3.55000000	          8.08499080	         20.79594441	        -39.93191352	          1.82216176	          0.73989742	          0.48579710	         51.76744930	          9.33310305	        -23.79901259	        -21.27398767	        -37.20447812	          7.66296454	         72.35642606	         50.40888296	         31.40074782	        -13.69111248	         -7.96976434	        -14.94417647	         -7.12349631	          1.92220852	         -8.49961776	        -32.32458728	         12.62548082	          8.01610977	        -24.81455346	         23.78987075	          0.16246392	         -7.87948024	          4.34706817	         30.67313145	         34.48899835	         78.54848957	         78.06138956	          0.01028660	          0.01064461	          0.01248265	          0.04963612	          0.01058428	          0.01210863	          0.04377908	          0.01858822	          0.01254686	          0.01663420	          0.02652308	          0.03638306	          0.02231670	          0.01657242	          0.50644903	          0.78516979	          0.11111102	          0.41277617	          0.27234215	          0.25390456	          0.13067021	          0.16855043	          0.09079296	          0.01028816	          0.01021021	          0.01011304	          0.01725287	          0.09767651	          0.01014375	          0.42861631	          0.02961859	          0.03534129	          0.01046480	          0.29120646	          0.07290526	          0.09036969	          0.19375632	          0.73738520	          0.99988521	          0.59334722	          0.09025814	          0.11078287	          0.17976572	          0.10147466	          0.21166082	          0.14151342	          0.03974654	          0.01972944	          0.08247022	          0.03950825	          0.01598590	          0.01095131	          0.01032050	          0.01018137	          0.01071904	          0.01030758	          0.07335152	          0.01615823	          0.01238482	          0.01206029	          0.01906679	          0.03779941	          0.02268095	          0.08745356	          0.12439083	          0.02605451	          0.01814084	          0.03117255	          0.12378031	          0.33815217	          0.01287363	          0.01305124	          0.05226480	          0.01008074	          0.01719256	          0.18628173	          0.01155145	          0.02361695	          0.03712135	          0.02593740	
          3.56000000	          8.17292607	         20.86930730	        -39.88269538	          1.82118962	          0.74199288	          0.48591744	         51.41924189	          9.41196721	        -23.95083709	        -21.38695074	        -37.22775840	          7.48745213	         71.68457036	         50.16212947	         31.22541089	        -13.71941405	         -7.90784723	        -14.93844568	         -7.29345839	          2.09768904	         -8.52379811	        -32.23493056	         12.58408957	          7.75142104	        -24.91105699	         23.69986744	          0.06085581	         -7.79842753	          4.11341561	         30.26909573	         34.24723740	         78.36162048	         77.91982672	          0.01018002	          0.01042397	          0.01063024	          0.04149210	          0.01023334	          0.01160597	          0.03649865	          0.01551989	          0.01055699	          0.01389904	          0.02210651	          0.03032135	          0.01882027	          0.01738317	          0.45656483	          0.72334986	          0.09269481	          0.42859449	          0.29826907	          0.24624646	          0.13951380	          0.15141349	          0.08161391	          0.01023488	          0.01032242	          0.01014477	          0.01439268	          0.08141757	          0.01018514	          0.35721788	          0.02469673	          0.02945758	          0.01017292	          0.24267752	          0.06076363	          0.07532217	          0.16147088	          0.61451177	          0.93253408	          0.49446213	          0.09871916	          0.11402316	          0.23810778	          0.14596462	          0.28198102	          0.19616743	          0.03497774	          0.01909700	          0.06958150	          0.03860444	          0.02272512	          0.01316045	          0.01060377	          0.01032376	          0.01097662	          0.01037344	          0.06165716	          0.01576671	          0.01266357	          0.01317410	          0.01906665	          0.05211117	          0.02391015	          0.13306012	          0.10430113	          0.02187269	          0.01517925	          0.03992376	          0.10589030	          0.36978468	          0.01211542	          0.01625326	          0.09185185	          0.01017409	          0.01646643	          0.21852393	          0.01433416	          0.02612596	          0.04054504	          0.02881570	
          3.57000000	          8.22141049	         20.93664473	        -39.85875299	          1.81996099	          0.74465074	          0.48600263	         51.05653121	          9.45552492	        -24.09655212	        -21.41593764	        -37.22607072	          7.36946800	         70.92328711	         49.86276349	         31.09873734	        -13.74034726	         -7.85679255	        -14.90771952	         -7.24697655	          2.33342509	         -8.50645356	        -32.09627907	         12.60532530	          7.48911290	        -25.02874702	         23.62425290	         -0.06060008	         -7.75219617	          3.93850660	         29.95865661	         34.08035703	         78.27005346	         77.85004237	          0.01021609	          0.01057699	          0.01131306	          0.03648445	          0.01035737	          0.01197950	          0.03053286	          0.01296860	          0.01007913	          0.01162826	          0.02166960	          0.03043218	          0.01570098	          0.01449653	          0.43747753	          0.72232949	          0.07940479	          0.35730706	          0.24909219	          0.20565750	          0.11657841	          0.12646580	          0.06857654	          0.01027660	          0.01037561	          0.01039679	          0.01634849	          0.06846113	          0.01019178	          0.29769536	          0.02059414	          0.02456343	          0.01021989	          0.20223298	          0.05074330	          0.06278408	          0.13456405	          0.51217469	          0.78489691	          0.41205885	          0.08455462	          0.09630753	          0.28323111	          0.25669962	          0.23917520	          0.16535695	          0.02931158	          0.01855568	          0.05813465	          0.04753788	          0.02474343	          0.01731462	          0.01049328	          0.01023217	          0.01328241	          0.01245504	          0.05149037	          0.01537035	          0.01353387	          0.01473013	          0.01841577	          0.04585984	          0.02442315	          0.11370808	          0.08722383	          0.01836631	          0.01271038	          0.03663634	          0.08904583	          0.43707795	          0.01153131	          0.01905469	          0.07704045	          0.01012629	          0.01489729	          0.23589716	          0.02827843	          0.02525225	          0.03467287	          0.02676558	
          3.58000000	          8.24627331	         20.96784213	        -39.87952728	          1.81851871	          0.74778367	          0.48618715	         50.64519829	          9.43325732	        -24.23910237	        -21.43117700	        -37.16010730	          7.38131553	         70.10573518	         49.46174734	         31.02422058	        -13.73735423	         -7.80319139	        -14.86677514	         -7.01902844	          2.62230581	         -8.45593614	        -31.90882371	         12.72518245	          7.21408381	        -25.13936748	         23.51399555	         -0.18980742	         -7.72575745	          3.88325130	         29.64246980	         33.88002325	         78.28175078	         77.83925644	          0.01627935	          0.01511639	          0.02515829	          0.17674965	          0.01989502	          0.01723296	          0.05240608	          0.01085459	          0.01065958	          0.01116060	          0.01806408	          0.02536324	          0.01308900	          0.01208302	          0.42817904	          0.69543376	          0.10966313	          0.29780673	          0.20782213	          0.17171927	          0.09725455	          0.10551234	          0.05746051	          0.01083893	          0.01015047	          0.01036683	          0.01367770	          0.05708017	          0.01010193	          0.24808771	          0.01717489	          0.02049527	          0.01047526	          0.16852851	          0.04229519	          0.05243088	          0.11214034	          0.42681837	          0.65408448	          0.34338493	          0.12123535	          0.15937125	          0.31118328	          0.21731320	          0.34037445	          0.24107087	          0.02447059	          0.01860274	          0.07902594	          0.04361527	          0.02469247	          0.02028800	          0.01111949	          0.01038069	          0.01141117	          0.01059971	          0.04294404	          0.01451603	          0.01207262	          0.01264016	          0.01686191	          0.03862273	          0.02335095	          0.15727106	          0.07329253	          0.01545581	          0.01065332	          0.03107653	          0.12678783	          0.49918911	          0.01143025	          0.01599337	          0.06431415	          0.01034732	          0.01309661	          0.20847878	          0.02386519	          0.02200272	          0.02919242	          0.02300766	
